<?xml version="1.0" encoding="UTF-8"?>
<svg width="1001px" height="1000px" viewBox="0 0 1001 1000" version="1.1" xmlns="http://www.w3.org/2000/svg" xmlns:xlink="http://www.w3.org/1999/xlink">
    <!-- Generator: Sketch 55.1 (78136) - https://sketchapp.com -->
    <title>编组 155</title>
    <desc>Created with Sketch.</desc>
    <defs>
        <linearGradient x1="50%" y1="0%" x2="50%" y2="100%" id="linearGradient-1">
            <stop stop-color="#FFFFFF" offset="0%"></stop>
            <stop stop-color="#EAF0FD" offset="100%"></stop>
        </linearGradient>
        <linearGradient x1="30.286812%" y1="0.769610709%" x2="85.0355696%" y2="89.098521%" id="linearGradient-2">
            <stop stop-color="#ACD6FF" stop-opacity="0.152485281" offset="0%"></stop>
            <stop stop-color="#96ACCB" stop-opacity="0.457455842" offset="100%"></stop>
        </linearGradient>
        <linearGradient x1="30.286812%" y1="2.69711308%" x2="85.0355696%" y2="87.5677086%" id="linearGradient-3">
            <stop stop-color="#ACD6FF" stop-opacity="0.152485281" offset="0%"></stop>
            <stop stop-color="#96ACCB" stop-opacity="0.457455842" offset="100%"></stop>
        </linearGradient>
        <linearGradient x1="30.286812%" y1="1.98311733%" x2="85.0355696%" y2="88.1347603%" id="linearGradient-4">
            <stop stop-color="#ACD6FF" stop-opacity="0.152485281" offset="0%"></stop>
            <stop stop-color="#96ACCB" stop-opacity="0.457455842" offset="100%"></stop>
        </linearGradient>
        <polygon id="path-5" points="761.123097 220.983001 773.992313 220.983001 773.992313 388.094719 761.123097 388.094719"></polygon>
        <polygon id="path-7" points="718.225629 388.041446 816.889699 388.041446 816.889699 400.935214 718.225629 400.935214"></polygon>
        <polygon id="path-9" points="682.069207 208.142483 853.6589 208.142483 853.6589 221.036259 682.069207 221.036259"></polygon>
        <linearGradient x1="93.3958167%" y1="77.3083397%" x2="36.8840443%" y2="40.0283501%" id="linearGradient-11">
            <stop stop-color="#367ED7" offset="0%"></stop>
            <stop stop-color="#153D8E" offset="100%"></stop>
        </linearGradient>
        <polygon id="path-12" points="739.061601 208.756423 757.070409 119.114006 861.012819 120.955954 843.853828 208.756423"></polygon>
        <linearGradient x1="0%" y1="67.2214047%" x2="106.166257%" y2="55.4767494%" id="linearGradient-14">
            <stop stop-color="#FDAE6B" offset="0%"></stop>
            <stop stop-color="#FAE539" offset="100%"></stop>
        </linearGradient>
        <linearGradient x1="100%" y1="69.4985615%" x2="27.9339743%" y2="50%" id="linearGradient-15">
            <stop stop-color="#CEE0FB" offset="0%"></stop>
            <stop stop-color="#E4EDFB" offset="100%"></stop>
        </linearGradient>
        <path d="M194.850665,348.973571 C197.617133,353.829946 199.166605,359.271032 199.166605,365.016849 C199.166605,385.532207 179.412128,402.163213 155.04359,402.163213 C130.675052,402.163213 110.920574,385.532207 110.920574,365.016849 C110.920574,358.936576 112.655701,353.197463 115.732009,348.131453 C135.278376,351.231849 174.184022,351.032102 194.850665,348.973571 Z" id="path-16"></path>
        <linearGradient x1="50%" y1="0%" x2="50%" y2="100%" id="linearGradient-18">
            <stop stop-color="#99BAE9" offset="0%"></stop>
            <stop stop-color="#BCD0F2" offset="100%"></stop>
        </linearGradient>
        <path d="M155.35,340.764268 C177.51862,340.764268 195.489728,345.025072 195.489728,350.281088 C195.489728,355.537104 177.51862,359.797908 155.35,359.797908 C133.18138,359.797908 115.210189,355.537104 115.210189,350.281088 C115.210189,345.025072 133.18138,340.764268 155.35,340.764268 Z" id="path-19"></path>
        <linearGradient x1="46.2403162%" y1="5.04199562%" x2="56.8201856%" y2="100%" id="linearGradient-21">
            <stop stop-color="#B1FFBE" offset="0%"></stop>
            <stop stop-color="#5CDB8E" offset="44.420721%"></stop>
            <stop stop-color="#149654" offset="100%"></stop>
        </linearGradient>
        <path d="M151.979448,341.992192 C149.787372,326.793724 143.757155,304.846369 125.628192,281.207226 C114.948987,267.282224 114.914133,233.371746 113.37185,229.632085 C121.751628,232.519228 136.805059,239.961434 151.979448,260.945608 C167.886499,282.942755 157.795298,327.803613 151.979448,341.992192 Z" id="path-22"></path>
        <filter x="-25.8%" y="-12.6%" width="138.4%" height="124.7%" filterUnits="objectBoundingBox" id="filter-24">
            <feGaussianBlur stdDeviation="8.5" in="SourceAlpha" result="shadowBlurInner1"></feGaussianBlur>
            <feOffset dx="0" dy="-13" in="shadowBlurInner1" result="shadowOffsetInner1"></feOffset>
            <feComposite in="shadowOffsetInner1" in2="SourceAlpha" operator="arithmetic" k2="-1" k3="1" result="shadowInnerInner1"></feComposite>
            <feColorMatrix values="0 0 0 0 0.221483195   0 0 0 0 0.778539541   0 0 0 0 0.473229813  0 0 0 1 0" type="matrix" in="shadowInnerInner1"></feColorMatrix>
        </filter>
        <linearGradient x1="74.4434213%" y1="-9.30161748%" x2="84.4938798%" y2="88.8160124%" id="linearGradient-25">
            <stop stop-color="#B1FFBE" offset="0%"></stop>
            <stop stop-color="#5CDB8E" offset="44.420721%"></stop>
            <stop stop-color="#149654" offset="100%"></stop>
        </linearGradient>
        <path d="M152.047151,357.59264 C145.274904,346.739927 133.309556,332.032439 111.544407,320.107287 C98.7232146,313.082533 87.318851,287.233792 84.8871823,284.901121 C92.25026,284.282167 106.234138,284.890634 124.854011,295.785669 C144.372731,307.206549 151.724314,344.814674 152.047151,357.59264 Z" id="path-26"></path>
        <filter x="-20.3%" y="-18.6%" width="140.3%" height="137.3%" filterUnits="objectBoundingBox" id="filter-28">
            <feGaussianBlur stdDeviation="8.5" in="SourceAlpha" result="shadowBlurInner1"></feGaussianBlur>
            <feOffset dx="0" dy="-13" in="shadowBlurInner1" result="shadowOffsetInner1"></feOffset>
            <feComposite in="shadowOffsetInner1" in2="SourceAlpha" operator="arithmetic" k2="-1" k3="1" result="shadowInnerInner1"></feComposite>
            <feColorMatrix values="0 0 0 0 0.221483195   0 0 0 0 0.778539541   0 0 0 0 0.473229813  0 0 0 1 0" type="matrix" in="shadowInnerInner1"></feColorMatrix>
        </filter>
        <linearGradient x1="41.5531016%" y1="5.04199562%" x2="65.3229418%" y2="100%" id="linearGradient-29">
            <stop stop-color="#B1FFBE" offset="0%"></stop>
            <stop stop-color="#5CDB8E" offset="44.420721%"></stop>
            <stop stop-color="#149654" offset="100%"></stop>
        </linearGradient>
        <path d="M156.910867,359.079864 C162.250608,347.398539 172.263822,331.207908 192.398727,316.521374 C204.259561,307.870042 212.270872,280.658295 214.390777,278.02136 C206.976451,278.356396 193.126454,280.769117 175.991036,294.023419 C158.028455,307.917621 155.577175,346.31477 156.910867,359.079864 Z" id="path-30"></path>
        <filter x="-21.1%" y="-16.8%" width="144.7%" height="134.0%" filterUnits="objectBoundingBox" id="filter-32">
            <feGaussianBlur stdDeviation="8.5" in="SourceAlpha" result="shadowBlurInner1"></feGaussianBlur>
            <feOffset dx="0" dy="-13" in="shadowBlurInner1" result="shadowOffsetInner1"></feOffset>
            <feComposite in="shadowOffsetInner1" in2="SourceAlpha" operator="arithmetic" k2="-1" k3="1" result="shadowInnerInner1"></feComposite>
            <feColorMatrix values="0 0 0 0 0.221483195   0 0 0 0 0.778539541   0 0 0 0 0.473229813  0 0 0 1 0" type="matrix" in="shadowInnerInner1"></feColorMatrix>
        </filter>
        <linearGradient x1="72.3455552%" y1="42.6115614%" x2="42.9088461%" y2="99.4097893%" id="linearGradient-33">
            <stop stop-color="#CBDAF1" offset="0%"></stop>
            <stop stop-color="#9CB3DF" offset="100%"></stop>
        </linearGradient>
        <path d="M142.787179,-102.536271 C163.771174,-102.536271 180.782051,-85.4929068 180.782051,-64.4689113 C180.782051,-43.4449158 163.771174,-26.4015519 142.787179,-26.4015519 C121.803185,-26.4015519 104.792308,-43.4449158 104.792308,-64.4689113 C104.792308,-85.4929068 121.803185,-102.536271 142.787179,-102.536271 Z" id="path-34"></path>
    </defs>
    <g id="1000个上传" stroke="none" stroke-width="1" fill="none" fill-rule="evenodd">
        <g id="8" transform="translate(-6736.000000, -3540.000000)">
            <g id="编组-155" transform="translate(6736.666667, 3540.000000)">
                <rect id="矩形复制-9备份-82" x="0" y="0" width="1000" height="1000"></rect>
                <g id="编组-139" transform="translate(32.000000, 188.000000)">
                    <g id="编组-177" transform="translate(0.000000, 196.000000)">
                        <g id="编组-176">
                            <rect id="floor" fill="url(#linearGradient-1)" x="0" y="291.031088" width="956" height="182.968912"></rect>
                            <path d="M723.402582,1.22794919 L762.586536,1.22794919 C765.162829,1.22794919 767.251243,3.32141378 767.251243,5.90373078 L753.256996,57.3372019 C753.256996,59.9195189 751.168582,62.0129835 748.59229,62.0129835 L709.408399,62.0129835 C706.832107,62.0129835 704.743565,59.9195189 704.743565,57.3372019 L718.737876,5.90373078 C718.737876,3.32141378 720.826289,1.22794919 723.402582,1.22794919 Z" id="3" fill="url(#linearGradient-2)"></path>
                            <path d="M782.571789,23.3316394 L834.048738,23.3316394 C837.433273,23.3316394 840.176968,26.0805809 840.176968,29.4715382 L821.792278,97.0103437 C821.792278,100.401301 819.048582,103.150242 815.664047,103.150242 L764.187182,103.150242 C760.802647,103.150242 758.058952,100.401301 758.058952,97.0103437 L776.443642,29.4715382 C776.443642,26.0805809 779.187338,23.3316394 782.571789,23.3316394 Z" id="2" fill="url(#linearGradient-3)"></path>
                            <path d="M732.933327,76.748674 L784.410277,76.748674 C787.794811,76.748674 790.538507,79.4976333 790.538507,82.8885814 L772.153816,150.427481 C772.153816,153.818429 769.410121,156.567388 766.025586,156.567388 L714.54872,156.567388 C711.164186,156.567388 708.42049,153.818429 708.42049,150.427481 L726.805181,82.8885814 C726.805181,79.4976333 729.548876,76.748674 732.933327,76.748674 Z" id="1" fill="url(#linearGradient-4)"></path>
                            <mask id="mask-6" fill="white">
                                <use xlink:href="#path-5"></use>
                            </mask>
                            <use id="Rectangle-3" fill="#8CA4D4" xlink:href="#path-5"></use>
                            <mask id="mask-8" fill="white">
                                <use xlink:href="#path-7"></use>
                            </mask>
                            <use id="Rectangle-2-copy" fill="#8CA4D4" xlink:href="#path-7"></use>
                            <mask id="mask-10" fill="white">
                                <use xlink:href="#path-9"></use>
                            </mask>
                            <use id="Rectangle-2" fill="#8CA4D4" xlink:href="#path-9"></use>
                            <polygon id="front" fill="#123584" mask="url(#mask-10)" points="732.933306 208.14247 750.942195 119.114006 854.884642 120.955954 837.112865 208.14247"></polygon>
                            <polygon id="bottom" fill="#123584" mask="url(#mask-10)" points="682.06929 203.137885 843.839336 203.137885 843.839336 208.756464 686.971765 208.756464"></polygon>
                            <mask id="mask-13" fill="white">
                                <use xlink:href="#path-12"></use>
                            </mask>
                            <use id="Shape-9" fill="url(#linearGradient-11)" xlink:href="#path-12"></use>
                            <path d="M800.9564,155.339373 C806.033202,155.339373 810.148739,158.775515 810.148739,163.014234 C810.148739,167.252953 806.033202,170.689129 800.9564,170.689129 C795.87966,170.689129 791.764122,167.252953 791.764122,163.014234 C791.764122,158.775515 795.87966,155.339373 800.9564,155.339373 Z" id="Ellipse-5" fill="#A1B8E3" mask="url(#mask-13)"></path>
                            <polygon id="Shape-5" fill="url(#linearGradient-14)" mask="url(#mask-13)" points="620.181596 135.097531 632.947523 118.389101 674.326522 144.331148 642.63192 107.836415 658.039103 93.3264556 696.776924 161.479244"></polygon>
                            <polygon id="Shape-6" fill="#E1A846" mask="url(#mask-13)" points="632.50734 118.82879 642.191785 117.509691 676.087367 145.650247"></polygon>
                            <polygon id="Shape-7" fill="#E6B052" mask="url(#mask-13)" points="641.751592 117.509668 643.07215 107.836392 675.20699 144.770812"></polygon>
                            <path d="M153.817949,386.199471 C178.186397,386.199471 197.940964,390.460316 197.940964,395.716324 C197.940964,400.972353 178.186397,405.233156 153.817949,405.233156 C129.449411,405.233156 109.694844,400.972353 109.694844,395.716324 C109.694844,390.460316 129.449411,386.199471 153.817949,386.199471 Z" id="shadow" fill="#BBCFF2" opacity="0.2" mask="url(#mask-13)"></path>
                            <mask id="mask-17" fill="white">
                                <use xlink:href="#path-16"></use>
                            </mask>
                            <use id="Ellipse-2" fill="url(#linearGradient-15)" xlink:href="#path-16"></use>
                            <mask id="mask-20" fill="white">
                                <use xlink:href="#path-19"></use>
                            </mask>
                            <use id="Ellipse-1" fill="url(#linearGradient-18)" xlink:href="#path-19"></use>
                            <mask id="mask-23" fill="white">
                                <use xlink:href="#path-22"></use>
                            </mask>
                            <g id="Shape-2">
                                <use fill="url(#linearGradient-21)" fill-rule="evenodd" xlink:href="#path-22"></use>
                                <use fill="black" fill-opacity="1" filter="url(#filter-24)" xlink:href="#path-22"></use>
                            </g>
                            <path d="M149.714831,324.711813 L138.444833,271.278127 C145.912123,286.189707 149.374576,302.672593 149.714828,324.711796 Z M138.444833,271.278127 L135.921666,259.315208 L132.382983,260.786958 C134.641069,264.230434 136.657653,267.709285 138.444836,271.278143 Z M149.714828,324.711796 C149.797891,330.092089 149.694883,335.803519 149.418644,341.904062 L153.27467,341.589838 L149.714831,324.711813 Z" id="Shape-3" stroke="#489C71" stroke-width="3.9" fill-opacity="0" fill="#000000" opacity="0.5" style="mix-blend-mode: multiply;" mask="url(#mask-23)"></path>
                            <mask id="mask-27" fill="white">
                                <use xlink:href="#path-26"></use>
                            </mask>
                            <g id="Shape-2">
                                <use fill="url(#linearGradient-25)" fill-rule="evenodd" xlink:href="#path-26"></use>
                                <use fill="black" fill-opacity="1" filter="url(#filter-28)" xlink:href="#path-26"></use>
                            </g>
                            <path d="M119.819671,310.211299 L112.316859,299.759343 L109.672032,302.532754 C113.312558,304.892722 116.676337,307.426582 119.819671,310.211299 Z M142.727861,342.124052 C145.113758,347.067468 147.438262,352.499868 149.76087,358.502586 L153.163596,356.66178 L142.727861,342.124052 Z" id="Shape-3" stroke="#489C71" stroke-width="3.9" fill-opacity="0" fill="#000000" opacity="0.5" style="mix-blend-mode: multiply;" mask="url(#mask-27)"></path>
                            <mask id="mask-31" fill="white">
                                <use xlink:href="#path-30"></use>
                            </mask>
                            <g id="Shape-2">
                                <use fill="url(#linearGradient-29)" fill-rule="evenodd" xlink:href="#path-30"></use>
                                <use fill="black" fill-opacity="1" filter="url(#filter-32)" xlink:href="#path-30"></use>
                            </g>
                            <path d="M180.87305,307.502793 C183.629561,304.34587 186.635354,301.407026 189.935699,298.60389 L186.956022,296.193892 L180.87305,307.502793 Z M162.104318,342.395887 L153.640565,358.130916 L157.252014,359.518122 C158.778652,353.278997 160.380138,347.600606 162.104318,342.395887 Z" id="Shape-3" stroke="#489C71" stroke-width="3.9" fill-opacity="0" fill="#000000" opacity="0.5" style="mix-blend-mode: multiply;" mask="url(#mask-31)"></path>
                            <mask id="mask-35" fill="white">
                                <use xlink:href="#path-34"></use>
                            </mask>
                            <use id="Ellipse-4" fill="url(#linearGradient-33)" xlink:href="#path-34"></use>
                            <path d="M147.282148,-64.5576164 L152.039507,-49.3756588 L158.521413,-53.2969221 L147.282148,-64.5576164 Z M147.150556,-64.6894591 L146.010898,-65.8312903 L147.150556,-63.0762017 L147.150556,-64.6894591 Z M147.150556,-64.9775596 L147.150556,-90.4661069 L139.528993,-89.2999322 L147.150556,-64.9775596 Z" id="Shape-8" stroke="#FFFFFF" stroke-width="7.8" mask="url(#mask-35)"></path>
                        </g>
                    </g>
                    <g id="289" transform="translate(225.000000, 0.000000)" fill-rule="nonzero">
                        <ellipse id="椭圆形" fill="#56BFEB" cx="220.077519" cy="257.352342" rx="33.6046512" ry="29.694501"></ellipse>
                        <g id="编组">
                            <g transform="translate(165.389151, 592.404961)" id="路径">
                                <g transform="translate(12.688947, 10.227734)">
                                    <path d="M6.85704331,24.7598828 C2.83166274,24.7598828 0.148075686,19.3771725 0.148075686,12.6487847 C0.148075686,5.92039684 2.83166274,0.537686584 5.51524979,0.537686584 L9.54063036,0.537686584 C13.5660109,0.537686584 16.249598,5.92039684 16.249598,12.6487847 C16.249598,19.3771725 13.5660109,24.7598828 10.8824239,24.7598828 L6.85704331,24.7598828 Z" fill="#313086"></path>
                                    <path d="M13.5660109,12.6487847 C13.5660109,19.3771725 10.8824239,24.7598828 8.19883684,24.7598828 C4.17345626,24.7598828 1.48986921,19.3771725 1.48986921,12.6487847 C1.48986921,5.92039684 4.17345626,0.537686584 6.85704331,0.537686584 C9.54063036,0.537686584 13.5660109,5.92039684 13.5660109,12.6487847 Z" fill="#464489"></path>
                                </g>
                                <g transform="translate(0.000000, 10.227734)">
                                    <path d="M7.46984884,24.7598828 C3.44446827,24.7598828 0.760881218,19.3771725 0.760881218,12.6487847 C0.760881218,5.92039684 3.44446827,0.537686584 6.12805532,0.537686584 L10.1534359,0.537686584 C14.1788165,0.537686584 16.8624035,5.92039684 16.8624035,12.6487847 C16.8624035,19.3771725 14.1788165,24.7598828 11.4952294,24.7598828 L7.46984884,24.7598828 Z" fill="#313086"></path>
                                    <path d="M12.8370229,12.6487847 C12.8370229,19.3771725 10.1534359,24.7598828 7.46984884,24.7598828 C3.44446827,24.7598828 0.760881218,19.3771725 0.760881218,12.6487847 C0.760881218,5.92039684 3.44446827,0.537686584 6.12805532,0.537686584 C10.1534359,0.537686584 12.8370229,5.92039684 12.8370229,12.6487847 Z" fill="#464489"></path>
                                </g>
                                <path d="M2.10267474,14.8024532 C2.10267474,14.8024532 4.78626179,10.7654205 8.81164237,12.1110981 C12.8370229,13.4567756 14.1788165,25.5678737 12.8370229,26.9135513 L30.2803388,25.5678737 C30.2803388,25.5678737 31.6221323,9.41974295 20.8877841,6.72838782 L18.204197,6.72838782 L18.204197,0 L0.760881218,2.69135513 L0.760881218,14.8024532 L2.10267474,14.8024532 Z" fill="#CED6E0"></path>
                            </g>
                            <g transform="translate(62.419597, 552.034634)" id="路径">
                                <g transform="translate(1.754127, 11.688839)">
                                    <path d="M9.39255467,24.6444555 C13.4179352,24.6444555 16.1015223,19.2617452 16.1015223,12.5333574 C16.1015223,5.80496956 13.4179352,0.422259301 10.7343482,0.422259301 L6.70896762,0.422259301 C2.68358705,0.422259301 0,5.80496956 0,12.5333574 C0,19.2617452 2.68358705,24.6444555 5.3671741,24.6444555 L9.39255467,24.6444555 Z" fill="#313086"></path>
                                    <path d="M2.68358705,12.5333574 C2.68358705,19.2617452 5.3671741,24.6444555 8.05076115,24.6444555 C10.7343482,24.6444555 14.7597288,19.2617452 14.7597288,12.5333574 C14.7597288,5.80496956 12.0761417,0.422259301 9.39255467,0.422259301 C6.70896762,0.422259301 4.02538057,5.80496956 2.68358705,12.5333574 Z" fill="#464489"></path>
                                </g>
                                <g transform="translate(15.172063, 11.688839)">
                                    <path d="M9.39255467,24.6444555 C13.4179352,24.6444555 16.1015223,19.2617452 16.1015223,12.5333574 C16.1015223,5.80496956 13.4179352,0.422259301 10.7343482,0.422259301 L6.70896762,0.422259301 C2.68358705,0.422259301 0,5.80496956 0,12.5333574 C0,19.2617452 2.68358705,24.6444555 5.3671741,24.6444555 L9.39255467,24.6444555 Z" fill="#313086"></path>
                                    <path d="M2.68358705,12.5333574 C2.68358705,19.2617452 5.3671741,24.6444555 8.05076115,24.6444555 C10.7343482,24.6444555 14.7597288,19.2617452 14.7597288,12.5333574 C14.7597288,5.80496956 12.0761417,0.422259301 9.39255467,0.422259301 C6.70896762,0.422259301 2.68358705,5.80496956 2.68358705,12.5333574 Z" fill="#464489"></path>
                                </g>
                                <path d="M29.9317914,14.8024532 C29.9317914,14.8024532 27.2482043,10.7654205 23.2228238,12.1110981 C19.1974432,13.4567756 17.8556497,25.5678737 19.1974432,26.9135513 L0.412333834,26.9135513 C0.412333834,26.9135513 -0.929459691,10.7654205 9.80488851,8.07406539 L12.4884756,8.07406539 L12.4884756,0 L29.9317914,2.69135513 L29.9317914,14.8024532 Z" fill="#CED6E0"></path>
                            </g>
                            <g>
                                <path d="M217.138186,560.108699 C217.138186,560.108699 198.353077,572.219797 191.644109,581.63954 C184.935142,591.059283 184.935142,595.096316 184.935142,595.096316 C184.935142,595.096316 170.175413,597.787671 166.150032,595.096316 C166.150032,595.096316 166.150032,581.63954 168.833619,576.25683 C171.517206,570.87412 183.593348,553.380311 183.593348,553.380311 C183.593348,553.380311 124.554433,545.306246 92.3513883,558.763021 C92.3513883,558.763021 81.6170401,564.145732 74.9080725,560.108699 C74.9080725,560.108699 72.2244854,545.306246 82.9588336,541.269213 C93.6931818,538.577858 128.579813,527.812437 179.567967,526.46676 L167.491826,523.775405 C167.491826,523.775405 163.466445,511.664307 172.859,507.627274 C182.251554,504.935919 199.69487,508.972952 199.69487,508.972952 L221.163567,519.738372 C221.163567,519.738372 309.721939,510.318629 325.823462,517.047017 L324.481668,534.540825 C324.481668,534.540825 297.645798,530.503793 277.518895,535.886503 C277.518895,535.886503 321.798081,549.343278 328.507049,554.725989 L324.481668,576.25683 C324.481668,576.25683 276.177101,553.380311 226.530741,557.417344 L217.138186,560.108699 Z" id="路径" fill="#F3F3F3"></path>
                                <path d="M309.721939,577.602507 L309.721939,565.491409 C309.721939,565.491409 313.74732,558.763021 316.430907,558.763021 C319.114494,558.763021 321.798081,561.454377 321.798081,561.454377 L323.139875,588.367928 L309.721939,577.602507 Z" id="路径" fill="#2B4151"></path>
                                <rect id="矩形" fill="#F3F3F3" x="180.909761" y="413.429844" width="67.0896762" height="22.8765186"></rect>
                                <path d="M230.556121,436.306363 L197.011283,436.306363 L197.011283,537.23218 C197.011283,554.725989 230.556121,554.725989 230.556121,537.23218 L230.556121,436.306363 Z" id="路径" fill="#E8EAE8"></path>
                                <path d="M317.7727,587.02225 L315.089113,535.886503 L354.001126,537.23218 C354.001126,537.23218 354.001126,568.182764 362.051887,582.985218 C368.760854,597.787671 362.051887,582.985218 362.051887,582.985218 L352.659332,589.713605 L317.7727,587.02225 Z" id="路径" fill="#ACB2BA"></path>
                                <path d="M72.2244854,398.627391 C72.2244854,398.627391 107.111117,356.911387 135.288781,346.145966 C163.466445,335.380546 213.112806,329.997835 213.112806,329.997835 L292.278623,362.294097 L288.253243,408.047134 L72.2244854,401.318746" id="路径" fill="#236CE4"></path>
                                <path d="M42.7050279,155.059752 L61.4901372,152.368397 L108.452911,204.849822 L144.681336,356.911387 C144.681336,356.911387 100.402149,371.71384 89.6678012,385.170616 C78.933453,398.627391 70.8826919,399.973069 70.8826919,399.973069 C70.8826919,399.973069 9.16018975,210.232532 10.5019833,194.084401 C11.8437768,177.936271 22.578125,161.78814 42.7050279,155.059752 Z" id="路径" fill="#236CE4"></path>
                                <path d="M62.8319307,152.368397 C62.8319307,152.368397 61.4901372,152.368397 60.1483437,152.368397 C53.4393761,153.714074 30.6288861,159.096785 26.6035056,165.825172 C21.2363315,173.899238 18.5527444,190.047369 21.2363315,204.849822 C23.9199185,219.652275 65.5155178,352.874354 70.8826919,370.368162 C74.9080725,387.861971 76.249866,391.899003 76.249866,391.899003 C76.249866,391.899003 163.466445,389.207648 191.644109,391.899003 C221.163567,394.590359 262.759166,398.627391 282.886069,394.590359 C303.012972,390.553326 317.7727,395.936036 317.7727,395.936036 L317.7727,410.738489 C317.7727,410.738489 278.860688,417.466877 252.024818,420.158232 C225.188947,422.849587 171.517206,418.812555 147.364923,416.1212 C123.212639,413.429844 84.3006271,413.429844 84.3006271,413.429844 C84.3006271,413.429844 60.1483437,418.812555 45.3886149,360.948419 C30.6288861,301.738607 13.1855703,239.837439 6.4766027,223.689308 C1.1094286,206.195499 -6.94133255,179.281948 11.8437768,165.825172 C30.6288861,152.368397 62.8319307,152.368397 62.8319307,152.368397 Z" id="路径" fill="#0D439B"></path>
                                <path d="M304.354765,585.676573 L300.329385,584.330895 C300.329385,584.330895 296.304004,592.404961 296.304004,603.170381 L311.063733,619.318512 L315.089113,612.590124 C315.089113,612.590124 320.456288,627.392577 325.823462,632.775287 C331.190636,638.157998 354.001126,647.577741 372.786235,647.577741 C391.571344,647.577741 403.647486,643.540708 403.647486,643.540708 C403.647486,643.540708 404.98928,639.503675 402.305693,638.157998 C399.622105,636.81232 354.001126,619.318512 354.001126,619.318512 L304.354765,585.676573 Z" id="路径" fill="#CED6E0"></path>
                                <path d="M222.50536,274.825055 C222.50536,274.825055 242.632263,277.51641 252.024818,292.318864 C252.024818,292.318864 257.391992,289.627508 262.759166,292.318864 C268.12634,295.010219 273.493514,288.281831 282.886069,288.281831 C290.93683,289.627508 368.760854,249.257182 376.811616,245.220149 C384.862377,241.183116 414.381834,234.454728 422.432595,254.639892 C431.82515,276.170733 410.356454,303.084284 410.356454,303.084284 L395.596725,367.676807 C395.596725,367.676807 395.596725,352.874354 380.836996,348.837321 C366.077267,344.800289 351.317539,332.689191 340.58319,331.343513 C329.848842,329.997835 312.405526,335.380546 311.063733,339.417578 C311.063733,339.417578 319.114494,327.30648 323.139875,321.92377 C327.165255,316.54106 329.848842,311.158349 329.848842,311.158349 C329.848842,311.158349 317.707095,336.515961 309.656334,333.824606 C301.605573,331.133251 183.593348,304.429962 183.593348,304.429962 L222.50536,274.825055 Z" id="路径" fill="#313086"></path>
                                <path d="M117.845465,336.726223 C117.845465,336.726223 120.529052,385.170616 155.415684,385.170616 C190.302316,385.170616 226.530741,383.824938 242.632263,387.861971 C258.733785,391.899003 298.987591,406.701457 301.671178,406.701457 C304.354765,406.701457 304.354765,410.738489 301.671178,421.50391 C298.987591,432.26933 304.354765,475.331012 305.696559,486.096433 C307.038352,498.207531 313.74732,550.688956 313.74732,550.688956 C313.74732,550.688956 339.241397,552.034634 349.975745,550.688956 C360.710093,549.343278 388.887757,545.306246 390.229551,543.960568 C390.229551,543.960568 378.153409,488.787788 376.811616,475.331012 C375.469822,461.874237 368.760854,375.750873 367.419061,367.676807 C366.077267,359.602742 344.608571,339.417578 327.165255,334.034868 C309.721939,328.652158 257.391992,316.54106 247.999437,313.849705 C238.606883,311.158349 168.833619,286.936153 168.833619,286.936153 C168.833619,286.936153 135.288781,290.973186 117.845465,336.726223 Z" id="路径" fill="#464489"></path>
                                <path d="M317.7727,335.380546 C317.7727,335.380546 312.405526,336.726223 309.721939,340.763256 C307.038352,346.145966 387.545964,405.355779 392.913138,367.676807 C398.280312,329.997835 398.280312,329.997835 398.280312,329.997835 L317.7727,335.380546 Z" id="路径" fill="#2B4151"></path>
                                <path d="M360.710093,338.071901 C360.710093,338.071901 354.001126,351.528676 349.975745,354.220032 C345.950364,356.911387 349.975745,352.874354 349.975745,352.874354 L298.987591,351.528676 C298.987591,351.528676 305.696559,344.800289 315.089113,338.071901 C324.481668,331.343513 329.848842,312.504027 329.848842,312.504027 L360.710093,338.071901 Z" id="路径" fill="#ACB2BA"></path>
                                <path d="M359.3683,211.57821 C359.3683,211.57821 363.39368,210.232532 364.735474,212.923887 C366.077267,215.615242 364.735474,218.306598 359.3683,218.306598 C355.342919,218.306598 359.3683,211.57821 359.3683,211.57821 Z" id="路径" fill="#FBC5B3"></path>
                                <path d="M362.051887,238.491761 C362.051887,238.491761 359.3683,239.837439 359.3683,242.528794 C359.3683,245.220149 351.317539,239.837439 351.317539,239.837439 L354.001126,234.454728 L362.051887,238.491761 Z" id="路径" fill="#FBC5B3"></path>
                                <path d="M366.077267,225.034985 L368.760854,226.380663 C368.760854,226.380663 363.39368,227.72634 363.39368,230.417696 C363.39368,233.109051 358.026506,229.072018 358.026506,229.072018 L359.3683,226.380663 L366.077267,225.034985 Z" id="路径" fill="#FBC5B3"></path>
                                <path d="M210.429218,148.331364 C210.429218,148.331364 221.163567,157.751107 222.50536,161.78814 C223.847154,165.825172 234.581502,183.318981 234.581502,186.010336 C234.581502,186.010336 264.100959,211.57821 266.784547,215.615242 C269.468134,219.652275 307.038352,238.491761 307.038352,238.491761 L268.12634,272.1337 C268.12634,272.1337 241.29047,269.442345 230.556121,253.294214 C219.821773,238.491761 187.618729,233.109051 187.618729,233.109051 L210.429218,148.331364 Z" id="路径" fill="#8AD6F7"></path>
                                <path d="M58.8065502,155.059752 C58.8065502,155.059752 69.5408984,138.911621 95.0349753,140.257299 C120.529052,141.602976 105.769324,203.504144 105.769324,203.504144 C105.769324,203.504144 104.42753,222.34363 101.743943,231.763373 C99.0603559,241.183116 95.0349753,261.36828 95.0349753,261.36828 C95.0349753,261.36828 115.161878,266.75099 119.187259,266.75099 C123.212639,266.75099 158.099271,269.442345 158.099271,269.442345 C158.099271,269.442345 148.706716,281.553443 151.390303,295.010219 C151.390303,295.010219 155.415684,300.392929 159.441065,300.392929 C164.808239,300.392929 160.782858,300.392929 160.782858,300.392929 C160.782858,300.392929 158.099271,301.738607 152.732097,303.084284 C147.364923,304.429962 119.187259,303.084284 119.187259,303.084284 C119.187259,303.084284 81.6170401,307.121317 74.9080725,307.121317 C68.1991048,307.121317 62.8319307,308.466994 58.8065502,308.466994 C53.4393761,308.466994 49.4139955,307.121317 44.0468214,297.701574 C38.6796473,288.281831 34.6542667,247.911504 37.3378538,223.689308 C38.6796473,200.812789 45.3886149,164.479495 58.8065502,155.059752 Z" id="路径" fill="#8AD6F7"></path>
                                <path d="M123.212639,107.961037 C123.212639,107.961037 124.554433,97.1956167 124.554433,89.1215513 C124.554433,82.3931635 123.212639,51.4425795 123.212639,51.4425795 L163.466445,27.2203833 L202.378457,31.257416 L201.036664,50.0969019 C201.036664,50.0969019 199.69487,63.5536776 201.036664,67.5907103 C201.036664,70.2820654 199.69487,72.9734205 198.353077,74.3190981 C198.353077,75.6647756 197.011283,82.3931635 198.353077,87.7758737 C198.353077,91.8129064 195.66949,97.1956167 192.985903,101.232649 C191.644109,105.269682 187.618729,109.306715 186.276935,118.726458 C184.935142,128.146201 174.200793,132.183233 168.833619,129.491878 L168.833619,159.096785 L144.681336,133.528911 L123.212639,107.961037 Z" id="路径" fill="#FFD9CC"></path>
                                <path d="M152.732097,134.874589 L172.859,134.874589 C172.859,134.874589 178.226174,138.911621 184.935142,138.911621 C191.644109,140.257299 207.745631,144.294331 210.429218,148.331364 C213.112806,152.368397 223.847154,176.590593 223.847154,198.121434 C223.847154,218.306598 219.821773,242.528794 219.821773,245.220149 C218.47998,247.911504 230.556121,257.331247 229.214328,272.1337 C229.214328,272.1337 179.567967,295.010219 167.491826,301.738607 C155.415684,307.121317 132.605194,317.886737 125.896226,329.997835 C120.529052,342.108933 119.187259,350.182999 119.187259,350.182999 C95.0349753,316.54106 85.6424207,273.479378 89.6678012,262.713957 C93.6931818,253.294214 104.42753,203.504144 104.42753,203.504144 C104.42753,203.504144 107.111117,160.442462 91.0095948,149.677042 C73.5662789,138.911621 62.8319307,151.022719 58.8065502,155.059752 C58.8065502,155.059752 64.1737243,145.640009 77.5916595,140.257299 C91.0095948,133.528911 109.794704,121.417813 112.478291,118.726458 L152.732097,134.874589 Z" id="路径" fill="#56BFEB"></path>
                                <path d="M162.124652,144.294331 L164.808239,151.022719 C164.808239,151.022719 168.833619,173.899238 171.517206,179.281948 C174.200793,184.664658 197.011283,249.257182 192.985903,264.059635 C187.618729,278.862088 187.618729,278.862088 187.618729,278.862088 L218.47998,274.825055 C218.47998,274.825055 183.593348,169.862205 183.593348,165.825172 C182.251554,161.78814 174.200793,146.985687 174.200793,146.985687 L171.517206,144.294331 L162.124652,144.294331 Z" id="路径" fill="#313086"></path>
                                <g transform="translate(195.140973, 259.638331)" id="路径">
                                    <polygon fill="#E8EAE8" points="48.8330832 28.6434994 1.87030982 29.989177 1.87030982 16.5324014 31.3897674 11.1496911 54.2002573 15.1867238"></polygon>
                                    <polygon fill="#ACB2BA" points="1.87030982 16.5324014 46.1494961 16.5324014 152.151185 0.384270575 95.7958566 0.384270575 0.528516295 13.8410462"></polygon>
                                    <path d="M146.784011,9.80401353 L48.8330832,27.2978219 L47.4912897,15.1867238 L153.492978,0.384270575 L153.492978,1.72994814 C152.151185,5.76698083 149.467598,9.80401353 146.784011,9.80401353 Z" fill="#ACB2BA"></path>
                                </g>
                                <g transform="translate(134.908340, 262.560541)" id="路径">
                                    <path d="M21.849137,8.2274814 C21.849137,8.2274814 27.2163111,8.2274814 32.5834852,6.88180383 C37.9506593,5.53612627 48.6850075,2.84477114 48.6850075,2.84477114 L54.0521816,1.49909357 C56.7357687,0.153416009 59.4193557,0.153416009 60.7611492,1.49909357 L71.4954974,5.53612627 C71.4954974,5.53612627 78.2044651,6.88180383 80.8880521,8.2274814 L88.9388133,8.2274814 C88.9388133,8.2274814 90.2806068,16.3015468 78.2044651,16.3015468 C67.4701169,16.3015468 60.7611492,12.2645141 60.7611492,12.2645141 C60.7611492,12.2645141 70.1537039,17.6472244 71.4954974,18.9929019 C72.837291,20.3385795 84.9134327,25.7212897 86.2552262,27.0669673 C86.2552262,27.0669673 91.6224003,28.4126449 94.3059873,27.0669673 C96.9895744,27.0669673 99.6731614,24.3756122 101.014955,27.0669673 L96.9895744,31.104 C96.9895744,31.104 92.9641938,33.7953551 90.2806068,33.7953551 C87.5970197,33.7953551 79.5462586,33.7953551 79.5462586,33.7953551 C79.5462586,33.7953551 76.8626715,36.4867103 70.1537039,36.4867103 C70.1537039,36.4867103 67.4701169,39.1780654 64.7865298,40.523743 C62.1029428,41.8694205 62.1029428,44.5607756 60.7611492,45.9064532 C59.4193557,47.2521308 54.0521816,45.9064532 51.3685946,44.5607756 C48.6850075,44.5607756 33.9252787,41.8694205 25.8745176,37.8323878 C17.8237564,33.7953551 0.380440609,35.1410327 0.380440609,35.1410327 C0.380440609,35.1410327 15.1401694,8.2274814 21.849137,8.2274814 Z" fill="#FFD9CC"></path>
                                    <g transform="translate(60.961621, 24.721894)" fill="#FBC5B3">
                                        <path d="M19.9264312,9.0734611 C19.9264312,9.0734611 19.9264312,9.0734611 19.9264312,9.0734611 C14.5592571,7.72778354 9.19208298,3.69075085 10.5338765,5.03642841 C13.2174636,6.38210598 19.9264312,9.0734611 19.9264312,9.0734611 Z"></path>
                                        <path d="M10.5338765,10.4191387 C10.5338765,10.4191387 10.5338765,10.4191387 9.19208298,11.7648162 C6.50849593,11.7648162 3.82490888,11.7648162 3.82490888,11.7648162 C5.1667024,11.7648162 10.5338765,10.4191387 10.5338765,10.4191387 Z"></path>
                                    </g>
                                    <path d="M88.9388133,6.88180383 C88.9388133,6.88180383 80.8880521,12.2645141 80.8880521,6.88180383 L88.9388133,6.88180383 Z" fill="#FFFFFF"></path>
                                </g>
                                <path d="M135.288781,99.8869718 C135.288781,99.8869718 147.364923,126.800523 168.833619,144.294331 L168.833619,126.800523 C168.833619,126.800523 146.023129,116.035103 135.288781,99.8869718 Z" id="路径" fill="#FBC5B3"></path>
                                <path d="M162.124652,129.491878 C162.124652,129.491878 166.150032,130.837556 170.175413,129.491878 C172.859,128.146201 174.200793,136.220266 174.200793,136.220266 C174.200793,136.220266 174.200793,145.640009 174.200793,148.331364 C174.200793,148.331364 167.491826,146.985687 164.808239,151.022719 C164.808239,151.022719 156.757477,141.602976 155.415684,138.911621 C152.732097,134.874589 162.124652,129.491878 162.124652,129.491878 Z" id="路径" fill="#464489"></path>
                                <path d="M176.88438,152.368397 C172.859,149.677042 172.859,140.257299 172.859,137.565944 C172.859,133.528911 168.833619,129.491878 168.833619,129.491878 L168.833619,126.800523 C170.175413,126.800523 171.517206,126.800523 172.859,126.800523 C172.859,129.491878 174.200793,133.528911 174.200793,136.220266 C175.542587,140.257299 176.88438,152.368397 176.88438,152.368397 Z" id="路径" fill="#8AD6F7"></path>
                                <path d="M124.554433,89.1215513 C124.554433,89.1215513 123.212639,64.8993551 131.263401,59.5166449 C131.263401,59.5166449 140.655955,68.9363878 139.314162,79.7018083 L143.339542,79.7018083 C143.339542,79.7018083 144.681336,63.5536776 150.04851,60.8623224 C156.757477,59.5166449 158.099271,56.8252897 158.099271,52.788257 C158.099271,50.0969019 159.441065,46.0598692 167.491826,46.0598692 C175.542587,46.0598692 201.036664,40.677159 201.036664,48.7512244 C201.036664,48.7512244 209.087425,42.0228365 203.720251,29.9117384 C198.353077,16.4549628 187.618729,7.03521984 175.542587,2.99818715 C163.466445,-1.03884555 140.655955,-1.03884555 132.605194,5.68954228 C123.212639,11.0722525 116.503672,27.2203833 115.161878,40.677159 C113.820085,54.1339346 120.529052,77.0104532 121.870846,83.738841 C123.212639,90.4672289 124.554433,89.1215513 124.554433,89.1215513 Z" id="路径" fill="#464489"></path>
                                <ellipse id="椭圆形" fill="#FFD9CC" transform="translate(129.854786, 71.622899) rotate(-8.256511) translate(-129.854786, -71.622899) " cx="129.854786" cy="71.6228985" rx="6.70913314" ry="14.8010478"></ellipse>
                                <path d="M123.212639,98.5412943 C123.212639,98.5412943 121.870846,102.578327 129.921607,107.961037 C136.630575,113.343747 162.124652,129.491878 162.124652,129.491878 L150.04851,159.096785 C150.04851,159.096785 135.288781,142.948654 131.263401,138.911621 C128.579813,136.220266 113.820085,116.035103 113.820085,116.035103 C113.820085,116.035103 116.503672,114.689425 116.503672,111.99807 C117.845465,110.652392 120.529052,98.5412943 123.212639,98.5412943 Z" id="路径" fill="#8AD6F7"></path>
                                <path d="M159.441065,299.047251 C159.441065,299.047251 156.757477,300.392929 151.390303,301.738607 C146.023129,303.084284 117.845465,301.738607 117.845465,301.738607 C117.845465,301.738607 80.2752466,305.775639 73.5662789,305.775639 C66.8573113,305.775639 61.4901372,307.121317 57.4647566,307.121317 C52.0975825,307.121317 48.072202,305.775639 42.7050279,296.355896 C37.3378538,286.936153 33.3124732,246.565826 35.9960602,222.34363 C37.3378538,215.615242 37.3378538,208.886855 38.6796473,200.812789 L104.42753,200.812789 C104.42753,200.812789 103.085736,219.652275 100.402149,229.072018 C97.7185624,238.491761 93.6931818,258.676924 93.6931818,258.676924 C93.6931818,258.676924 113.820085,264.059635 117.845465,264.059635 C120.529052,264.059635 156.757477,266.75099 156.757477,266.75099 C156.757477,266.75099 147.364923,278.862088 150.04851,292.318864 C151.390303,295.010219 154.07389,300.392929 159.441065,299.047251 C164.808239,299.047251 159.441065,299.047251 159.441065,299.047251 Z" id="路径" fill="#8AD6F7"></path>
                                <g transform="translate(236.852755, 150.523021)" id="路径">
                                    <polygon fill="#ACB2BA" points="142.642447 5.88240812 145.326035 3.19105299 142.642447 0.499697858 37.9825525 12.6107959 46.0333137 23.3762165"></polygon>
                                    <polygon fill="#CED6E0" points="5.77950793 117.573646 5.77950793 125.647711 110.439403 110.845258 145.326035 3.19105299 43.3497266 13.9564735 23.2228238 58.3638331"></polygon>
                                    <path d="M5.77950793,125.647711 L43.3497266,13.9564735 L37.9825525,11.2651184 L0.412333834,121.610679 C0.412333834,125.647711 1.75412736,126.993389 5.77950793,125.647711 Z" fill="#E8EAE8"></path>
                                </g>
                                <path d="M348.633952,255.985569 L348.633952,254.639892 C348.633952,254.639892 341.924984,250.602859 343.266777,247.911504 C344.608571,245.220149 345.950364,245.220149 345.950364,245.220149 C345.950364,245.220149 339.241397,242.528794 339.241397,238.491761 C340.58319,234.454728 344.608571,235.800406 345.950364,235.800406 C347.292158,235.800406 356.684713,239.837439 358.026506,239.837439 C358.026506,239.837439 360.710093,241.183116 359.3683,243.874471 C359.3683,246.565826 356.684713,247.911504 354.001126,247.911504 C354.001126,247.911504 356.684713,249.257182 355.342919,251.948537 C355.342919,254.639892 349.975745,255.985569 348.633952,255.985569 Z" id="路径" fill="#FFD9CC"></path>
                                <path d="M352.659332,254.639892 C351.317539,254.639892 349.975745,254.639892 348.633952,254.639892 L348.633952,253.294214 C348.633952,254.639892 349.975745,254.639892 352.659332,254.639892 Z" id="路径" fill="#FBC5B3"></path>
                                <path d="M354.001126,249.257182 C354.001126,249.257182 354.001126,249.257182 354.001126,249.257182 C354.001126,247.911504 354.001126,247.911504 354.001126,249.257182 C351.317539,247.911504 351.317539,247.911504 349.975745,247.911504 C348.633952,247.911504 348.633952,246.565826 347.292158,246.565826 C347.292158,246.565826 347.292158,246.565826 345.950364,246.565826 C345.950364,246.565826 345.950364,246.565826 345.950364,246.565826 C345.950364,246.565826 345.950364,246.565826 345.950364,246.565826 C345.950364,246.565826 345.950364,246.565826 347.292158,246.565826 C348.633952,246.565826 348.633952,247.911504 349.975745,247.911504 C351.317539,246.565826 352.659332,247.911504 354.001126,249.257182 C354.001126,247.911504 354.001126,247.911504 354.001126,249.257182 C354.001126,249.257182 354.001126,249.257182 354.001126,249.257182 Z" id="路径" fill="#FBC5B3"></path>
                                <path d="M345.950364,234.454728 C343.266777,233.109051 343.266777,230.417696 343.266777,229.072018 C343.266777,229.072018 343.266777,229.072018 343.266777,229.072018 C344.608571,226.380663 347.292158,226.380663 348.633952,227.72634 C349.975745,227.72634 360.710093,231.763373 360.710093,231.763373 C360.710093,231.763373 363.39368,233.109051 362.051887,237.146083 C360.710093,241.183116 356.684713,239.837439 355.342919,239.837439 C356.684713,238.491761 349.975745,235.800406 345.950364,234.454728 Z" id="路径" fill="#FFD9CC"></path>
                                <path d="M351.317539,223.689308 C351.317539,225.034985 352.659332,226.380663 354.001126,226.380663 C355.342919,226.380663 356.684713,226.380663 359.3683,226.380663 C366.077267,226.380663 368.760854,226.380663 368.760854,226.380663 C368.760854,226.380663 370.102648,225.034985 368.760854,220.997953 C367.419061,216.96092 366.077267,218.306598 364.735474,218.306598 C363.39368,218.306598 356.684713,218.306598 355.342919,218.306598 C355.342919,218.306598 355.342919,218.306598 355.342919,218.306598 C354.001126,219.652275 351.317539,220.997953 351.317539,223.689308 Z" id="路径" fill="#FFD9CC"></path>
                                <path d="M421.090802,254.639892 C411.698247,233.109051 382.17879,241.183116 375.469822,245.220149 C375.469822,245.220149 375.469822,245.220149 375.469822,245.220149 C375.469822,246.565826 375.469822,247.911504 374.128029,247.911504 C360.710093,269.442345 341.924984,284.244798 320.456288,295.010219 L320.456288,321.92377 C324.481668,317.886737 328.507049,312.504027 328.507049,312.504027 C328.507049,312.504027 325.823462,317.886737 321.798081,323.269448 C317.7727,327.30648 313.74732,335.380546 311.063733,339.417578 C315.089113,335.380546 329.848842,331.343513 339.241397,332.689191 C349.975745,334.034868 364.735474,344.800289 379.495203,350.182999 C394.254931,354.220032 394.254931,369.022485 394.254931,369.022485 L409.01466,304.429962 C407.672867,303.084284 429.141563,276.170733 421.090802,254.639892 Z" id="路径" fill="#313086"></path>
                                <path d="M278.860688,373.059517 C278.860688,373.059517 273.493514,375.750873 270.809927,386.516293 C266.784547,397.281714 282.886069,406.701457 289.595036,408.047134 C296.304004,410.738489 321.798081,410.738489 321.798081,410.738489 L324.481668,402.664424 C324.481668,402.664424 344.608571,410.738489 358.026506,412.084167 C371.444441,412.084167 386.20417,401.318746 396.938518,395.936036 C407.672867,390.553326 409.01466,386.516293 409.01466,381.133583 C409.01466,375.750873 403.647486,373.059517 403.647486,373.059517 C403.647486,373.059517 402.305693,369.022485 392.913138,367.676807 C383.520583,364.985452 319.114494,364.985452 319.114494,364.985452 C319.114494,364.985452 288.253243,363.639775 278.860688,373.059517 Z" id="路径" fill="#F3F3F3"></path>
                                <path d="M297.645798,375.750873 L301.671178,382.47926 C301.671178,382.47926 303.012972,397.281714 320.456288,410.738489 L323.139875,402.664424 C323.139875,402.664424 305.696559,387.861971 308.380146,373.059517" id="路径" fill="#CED6E0"></path>
                                <path d="M269.468134,387.861971 C272.151721,383.824938 276.177101,381.133583 282.886069,379.787905 C297.645798,378.442228 303.012972,382.47926 303.012972,382.47926 L311.063733,370.368162 L292.278623,366.33113 C286.911449,367.676807 281.544275,369.022485 278.860688,371.71384 C278.860688,371.71384 273.493514,374.405195 270.809927,385.170616 C269.468134,386.516293 269.468134,387.861971 269.468134,387.861971 Z" id="路径" fill="#E8EAE8"></path>
                                <path d="M298.987591,348.837321 C298.987591,348.837321 304.354765,350.182999 311.063733,348.837321 C317.7727,347.491644 333.874223,342.108933 337.899603,342.108933 C341.924984,342.108933 347.292158,348.837321 347.292158,348.837321 C347.292158,348.837321 355.342919,358.257064 371.444441,359.602742 C387.545964,362.294097 394.254931,359.602742 399.622105,366.33113 C406.331073,373.059517 406.331073,378.442228 406.331073,378.442228 C406.331073,378.442228 404.98928,374.405195 400.963899,370.368162 C396.938518,366.33113 387.545964,366.33113 380.836996,364.985452 C374.128029,364.985452 356.684713,366.33113 344.608571,366.33113 C332.532429,367.676807 327.165255,371.71384 323.139875,373.059517 C319.114494,374.405195 315.089113,371.71384 307.038352,369.022485 C298.987591,366.33113 276.177101,369.022485 276.177101,369.022485 C276.177101,369.022485 282.886069,358.257064 298.987591,348.837321 Z" id="路径" fill="#313086"></path>
                                <path d="M399.622105,638.157998 C399.622105,638.157998 383.520583,642.19503 370.102648,642.19503 C356.684713,642.19503 332.532429,636.81232 325.823462,628.738255 C319.114494,620.664189 315.089113,609.898769 307.038352,601.824703 C298.987591,593.750638 296.304004,589.713605 297.645798,580.293862 C298.987591,570.87412 307.038352,560.108699 313.74732,558.763021 L313.74732,560.108699 C312.405526,560.108699 311.063733,561.454377 311.063733,564.145732 C311.063733,566.837087 312.405526,572.219797 315.089113,576.25683 C316.430907,578.948185 317.7727,580.293862 320.456288,581.63954 C324.481668,584.330895 332.532429,585.676573 333.874223,585.676573 L333.874223,584.330895 C333.874223,584.330895 348.633952,577.602507 356.684713,577.602507 C358.026506,577.602507 358.026506,577.602507 359.3683,577.602507 C359.3683,577.602507 364.735474,588.367928 368.760854,595.096316 C372.786235,601.824703 383.520583,617.972834 391.571344,624.701222 C399.622105,630.083932 402.305693,635.466643 399.622105,638.157998 Z" id="路径" fill="#313086"></path>
                                <path d="M171.517206,398.627391 L167.491826,406.701457 C167.491826,406.701457 163.466445,413.429844 146.023129,413.429844 C128.579813,413.429844 70.8826919,413.429844 70.8826919,413.429844 C70.8826919,413.429844 56.1229631,412.084167 49.4139955,387.861971 C44.0468214,363.639775 40.0214408,312.504027 40.0214408,312.504027 L56.1229631,312.504027 C56.1229631,312.504027 60.1483437,362.294097 62.8319307,371.71384 C65.5155178,381.133583 65.5155178,394.590359 76.249866,395.936036 C86.9842142,397.281714 166.150032,393.244681 166.150032,393.244681 L171.517206,398.627391 Z" id="路径" fill="#F3F3F3"></path>
                                <path d="M33.3124732,313.849705 C33.3124732,313.849705 104.42753,311.158349 112.478291,311.158349 C120.529052,312.504027 139.314162,328.652158 144.681336,339.417578 C150.04851,350.182999 167.491826,394.590359 167.491826,405.355779 C167.491826,405.355779 180.909761,395.936036 178.226174,378.442228 C175.542587,360.948419 158.099271,313.849705 141.997749,305.775639 C131.263401,300.392929 92.3513883,299.047251 69.5408984,299.047251 C61.4901372,299.047251 54.7811696,297.701574 48.072202,293.664541 C45.3886149,292.318864 41.3632343,292.318864 37.3378538,293.664541 C27.9452991,301.738607 30.6288861,312.504027 33.3124732,313.849705 Z" id="路径" fill="#CED6E0"></path>
                            </g>
                        </g>
                    </g>
                </g>
            </g>
        </g>
    </g>
</svg>